<?xml version="1.0" ?><svg viewBox="0 0 30 30" xmlns="http://www.w3.org/2000/svg"><title/><g data-name="Layer 2" id="Layer_2"><g id="Interface-Solid"><g id="interface-solid-multimedia-previous-track-button-1"><path d="M20.56812,10.23853,18.625,11.59473v6.81054l1.94312,1.3562a1,1,0,0,0,1.57238-.82006V11.05859A1,1,0,0,0,20.56812,10.23853Z" fill="none"/><path d="M13.93365,10.23853l-1.94311,1.3562L8.28711,14.18018a1,1,0,0,0,0,1.63989l3.70343,2.5852,1.94311,1.3562a1,1,0,0,0,1.57239-.82006V11.05859A1,1,0,0,0,13.93365,10.23853Z" fill="none"/><path d="M15,0A15,15,0,1,0,30,15,15.01641,15.01641,0,0,0,15,0Zm.506,18.94141a1,1,0,0,1-1.57239.82006l-1.94311-1.3562-3.70343-2.5852a1,1,0,0,1,0-1.63989l3.70343-2.58545,1.94311-1.3562a1,1,0,0,1,1.57239.82006Zm6.63446,0a1,1,0,0,1-1.57238.82006L18.625,18.40527V11.59473l1.94312-1.3562a1,1,0,0,1,1.57238.82006Z"/></g></g></g></svg>